# xmcd CD database file
#
# Track frame offsets:
#	150
#	14538
#	36355
#	48482
#	63997
#	78444
#	98043
#	113197
#	126963
#	141461
#	157542
#	173815
#	188042
#
# Disc length: 2615 seconds
#
# Revision: 0
# Processed by: cddbd v1.5.2PL0 Copyright (c) Steve Scherf et al.
# Submitted via: CDex 1.70beta2
#
DISCID=aa0a350d
DTITLE=Ohaři - Obchodník s deštěm
DYEAR=1900
DGENRE=Country
TTITLE0=Starý hamr
TTITLE1=Obchodník s deštěm
TTITLE2=Všechno bude jako dřív
TTITLE3=Jsem míjen tmou
TTITLE4=Tulák
TTITLE5=Vzdálená
TTITLE6=Padám, padám
TTITLE7=Když kraj se bíle odívá
TTITLE8=Chtěl bych znát víc
TTITLE9=Dokud se mám čemu smát
TTITLE10=Doufám dál
TTITLE11=Zlato je když
TTITLE12=Džíny v skříni
EXTD=
EXTT0=
EXTT1=
EXTT2=
EXTT3=
EXTT4=
EXTT5=
EXTT6=
EXTT7=
EXTT8=
EXTT9=
EXTT10=
EXTT11=
EXTT12=
PLAYORDER=
